# xmcd CD database file
#
# Track frame offsets:
#	150
#	12977
#	25803
#	36191
#	46579
#	59405
#	72230
#	105193
#	138156
#	149933
#	161709
#	175435
#	189161
#	201685
#
# Disc length: 2854 seconds
#
# Revision: 0
# Processed by: cddbd v1.5.2PL0 Copyright (c) Steve Scherf et al.
# Submitted via: CDex 1.51
#
DISCID=c80b240e
DTITLE=Creedence Clearwater Revival - Ultimate Minus One
DYEAR=2003
DGENRE=Country
TTITLE0=Down the Corner - Full
TTITLE1=Down the Corner
TTITLE2=Fortunate Son - Full
TTITLE3=Fortunate Son
TTITLE4=Have you ever seen the Rain - Full
TTITLE5=Have you ever seen the Rain
TTITLE6=I heard it through the Grapevine - Full
TTITLE7=I heard it through the Grapevine
TTITLE8=Looking out my Backdoor - Full
TTITLE9=Looking out my Backdoor
TTITLE10=Proud Mary - Full
TTITLE11=Proud Mary
TTITLE12=Up around the bend - Full
TTITLE13=Up around the bend
EXTD=YEAR: 2003
EXTT0=
EXTT1=
EXTT2=
EXTT3=
EXTT4=
EXTT5=
EXTT6=
EXTT7=
EXTT8=
EXTT9=
EXTT10=
EXTT11=
EXTT12=
EXTT13=
PLAYORDER=
